<svg xmlns="http://www.w3.org/2000/svg" viewBox="0 0 100 100" preserveAspectRatio="xMidYMid" width="223" height="223" style="shape-rendering: auto; display: block; background: transparent;" xmlns:xlink="http://www.w3.org/1999/xlink"><g><g transform="rotate(0 50 50)">
  <rect fill="#f59e0b" height="14" width="3" ry="7" rx="1.5" y="23" x="48.5">
    <animate repeatCount="indefinite" begin="-0.5100182149362477s" dur="0.5464480874316939s" keyTimes="0;1" values="1;0" attributeName="opacity"></animate>
  </rect>
</g><g transform="rotate(24 50 50)">
  <rect fill="#f59e0b" height="14" width="3" ry="7" rx="1.5" y="23" x="48.5">
    <animate repeatCount="indefinite" begin="-0.4735883424408014s" dur="0.5464480874316939s" keyTimes="0;1" values="1;0" attributeName="opacity"></animate>
  </rect>
</g><g transform="rotate(48 50 50)">
  <rect fill="#f59e0b" height="14" width="3" ry="7" rx="1.5" y="23" x="48.5">
    <animate repeatCount="indefinite" begin="-0.4371584699453551s" dur="0.5464480874316939s" keyTimes="0;1" values="1;0" attributeName="opacity"></animate>
  </rect>
</g><g transform="rotate(72 50 50)">
  <rect fill="#f59e0b" height="14" width="3" ry="7" rx="1.5" y="23" x="48.5">
    <animate repeatCount="indefinite" begin="-0.4007285974499089s" dur="0.5464480874316939s" keyTimes="0;1" values="1;0" attributeName="opacity"></animate>
  </rect>
</g><g transform="rotate(96 50 50)">
  <rect fill="#f59e0b" height="14" width="3" ry="7" rx="1.5" y="23" x="48.5">
    <animate repeatCount="indefinite" begin="-0.36429872495446264s" dur="0.5464480874316939s" keyTimes="0;1" values="1;0" attributeName="opacity"></animate>
  </rect>
</g><g transform="rotate(120 50 50)">
  <rect fill="#f59e0b" height="14" width="3" ry="7" rx="1.5" y="23" x="48.5">
    <animate repeatCount="indefinite" begin="-0.32786885245901637s" dur="0.5464480874316939s" keyTimes="0;1" values="1;0" attributeName="opacity"></animate>
  </rect>
</g><g transform="rotate(144 50 50)">
  <rect fill="#f59e0b" height="14" width="3" ry="7" rx="1.5" y="23" x="48.5">
    <animate repeatCount="indefinite" begin="-0.2914389799635701s" dur="0.5464480874316939s" keyTimes="0;1" values="1;0" attributeName="opacity"></animate>
  </rect>
</g><g transform="rotate(168 50 50)">
  <rect fill="#f59e0b" height="14" width="3" ry="7" rx="1.5" y="23" x="48.5">
    <animate repeatCount="indefinite" begin="-0.25500910746812383s" dur="0.5464480874316939s" keyTimes="0;1" values="1;0" attributeName="opacity"></animate>
  </rect>
</g><g transform="rotate(192 50 50)">
  <rect fill="#f59e0b" height="14" width="3" ry="7" rx="1.5" y="23" x="48.5">
    <animate repeatCount="indefinite" begin="-0.21857923497267756s" dur="0.5464480874316939s" keyTimes="0;1" values="1;0" attributeName="opacity"></animate>
  </rect>
</g><g transform="rotate(216 50 50)">
  <rect fill="#f59e0b" height="14" width="3" ry="7" rx="1.5" y="23" x="48.5">
    <animate repeatCount="indefinite" begin="-0.18214936247723132s" dur="0.5464480874316939s" keyTimes="0;1" values="1;0" attributeName="opacity"></animate>
  </rect>
</g><g transform="rotate(240 50 50)">
  <rect fill="#f59e0b" height="14" width="3" ry="7" rx="1.5" y="23" x="48.5">
    <animate repeatCount="indefinite" begin="-0.14571948998178505s" dur="0.5464480874316939s" keyTimes="0;1" values="1;0" attributeName="opacity"></animate>
  </rect>
</g><g transform="rotate(264 50 50)">
  <rect fill="#f59e0b" height="14" width="3" ry="7" rx="1.5" y="23" x="48.5">
    <animate repeatCount="indefinite" begin="-0.10928961748633878s" dur="0.5464480874316939s" keyTimes="0;1" values="1;0" attributeName="opacity"></animate>
  </rect>
</g><g transform="rotate(288 50 50)">
  <rect fill="#f59e0b" height="14" width="3" ry="7" rx="1.5" y="23" x="48.5">
    <animate repeatCount="indefinite" begin="-0.07285974499089252s" dur="0.5464480874316939s" keyTimes="0;1" values="1;0" attributeName="opacity"></animate>
  </rect>
</g><g transform="rotate(312 50 50)">
  <rect fill="#f59e0b" height="14" width="3" ry="7" rx="1.5" y="23" x="48.5">
    <animate repeatCount="indefinite" begin="-0.03642987249544626s" dur="0.5464480874316939s" keyTimes="0;1" values="1;0" attributeName="opacity"></animate>
  </rect>
</g><g transform="rotate(336 50 50)">
  <rect fill="#f59e0b" height="14" width="3" ry="7" rx="1.5" y="23" x="48.5">
    <animate repeatCount="indefinite" begin="0s" dur="0.5464480874316939s" keyTimes="0;1" values="1;0" attributeName="opacity"></animate>
  </rect>
</g><g></g></g><!-- [ldio] generated by https://loading.io --></svg>